# xmcd
#
# Track frame offsets: 
#        150
#        13612
#        36225
#        57412
#        71400
#        91087
#        116325
#        130725
#        158887
#        184050
#        202012
#        219975
#        245287
#        270375
#
# Disc length: 3790 seconds
#
# Revision: 2
# Processed by: cddbd v1.5.2PL0 Copyright (c) Steve Scherf et al.
# Submitted via: ExactAudioCopy v0.99pb4
#
DISCID=ba0ecc0e
DTITLE=Toni Lynn Washington - It's My Turn Now
DYEAR=1997
DGENRE=Blues
TTITLE0=Just Around the Corner
TTITLE1=You Gotta Know
TTITLE2=It's My Turn Now
TTITLE3=Ain't Gonna Cry No More
TTITLE4=Paycheck in My Pocket
TTITLE5=Who Will the Next Fool Be
TTITLE6=I'm Leaving You
TTITLE7=You Can Stay But The Noise Must Go
TTITLE8=It's Too Late
TTITLE9=Teardrops From My Eyes
TTITLE10=Young Men Go Wild
TTITLE11=Down The Drain
TTITLE12=I Don't Need No Doctor
TTITLE13=Sugar In My Bowl
EXTD=
EXTT0=
EXTT1=
EXTT2=
EXTT3=
EXTT4=
EXTT5=
EXTT6=
EXTT7=
EXTT8=
EXTT9=
EXTT10=
EXTT11=
EXTT12=
EXTT13=
PLAYORDER=
